<?xml version="1.0" encoding="UTF-8"?>
<!DOCTYPE svg PUBLIC "-//W3C//DTD SVG 1.1//EN" "http://www.w3.org/Graphics/SVG/1.1/DTD/svg11.dtd">
<svg xmlns="http://www.w3.org/2000/svg" version="1.1" width="167px" height="167px" style="shape-rendering:geometricPrecision; text-rendering:geometricPrecision; image-rendering:optimizeQuality; fill-rule:evenodd; clip-rule:evenodd" xmlns:xlink="http://www.w3.org/1999/xlink">
<g><path style="opacity:0.986" fill="#fdfdfd" d="M 65.5,-0.5 C 77.1667,-0.5 88.8333,-0.5 100.5,-0.5C 135.5,8.5 157.5,30.5 166.5,65.5C 166.5,77.1667 166.5,88.8333 166.5,100.5C 157.5,135.5 135.5,157.5 100.5,166.5C 88.8333,166.5 77.1667,166.5 65.5,166.5C 30.5,157.5 8.5,135.5 -0.5,100.5C -0.5,88.8333 -0.5,77.1667 -0.5,65.5C 8.5,30.5 30.5,8.5 65.5,-0.5 Z"/></g>
<g><path style="opacity:1" fill="#020202" d="M 72.5,24.5 C 79.5736,24.161 86.5736,24.661 93.5,26C 97.1836,29.457 101.517,31.7903 106.5,33C 111.588,38.2579 113.921,44.5913 113.5,52C 113.302,58.1271 112.302,64.1271 110.5,70C 113.295,75.5437 113.128,81.0437 110,86.5C 108.989,87.3366 107.822,87.67 106.5,87.5C 105.991,93.5298 103.825,98.8631 100,103.5C 99.3333,108.833 99.3333,114.167 100,119.5C 101.833,121.333 103.667,123.167 105.5,125C 113.05,128.608 120.717,131.942 128.5,135C 131.891,136.689 134.891,138.856 137.5,141.5C 107.996,166.893 75.9961,170.393 41.5,152C 36.708,149.039 32.3746,145.539 28.5,141.5C 31.7827,138.518 35.4493,136.018 39.5,134C 46.6641,131.39 53.6641,128.39 60.5,125C 63,123.833 64.8333,122 66,119.5C 66.6667,114.167 66.6667,108.833 66,103.5C 62.1752,98.8631 60.0086,93.5298 59.5,87.5C 56.405,87.3737 54.5717,85.707 54,82.5C 53.0816,78.2574 53.5816,74.2574 55.5,70.5C 53.7297,61.5707 53.2297,52.5707 54,43.5C 56.9823,34.0182 63.149,27.6849 72.5,24.5 Z"/></g>
</svg>
